<svg width="647" height="647" viewBox="0 0 647 647" fill="none" xmlns="http://www.w3.org/2000/svg">
<g clip-path="url(#clip0_8943_63336)">
<path d="M491.018 383.947C501.032 366.89 525.902 366.89 535.806 383.947L642.219 565.74C652.233 582.797 639.688 604.035 619.77 604.035H406.945C387.027 604.035 374.592 582.797 384.496 565.74L490.908 383.947H491.018Z" fill="#FF394A"/>
<path d="M426.744 262.896C436.428 245.949 436.428 225.041 426.744 207.984L339.479 55.7926C329.685 38.7358 305.255 38.7358 295.461 55.7926L3.40417 565.627C-6.38976 582.684 5.82514 604.033 25.413 604.033H199.833C219.311 604.033 237.248 593.578 246.932 576.632L426.634 262.896H426.744Z" fill="#FF394A"/>
</g>
<defs>
<clipPath id="clip0_8943_63336">
<rect width="647" height="647" fill="white"/>
</clipPath>
</defs>
</svg>
